<svg width="20" height="21" viewBox="0 0 20 21" fill="none" xmlns="http://www.w3.org/2000/svg">
<g opacity="0.3">
<path d="M20 10.6345C20 5.09606 15.5385 0.634521 10 0.634521C4.46154 0.634521 0 5.09606 0 10.6345C0 16.173 4.46154 20.6345 10 20.6345C15.5385 20.6345 20 16.173 20 10.6345Z" fill="url(#paint0_linear_124_126)"/>
<path d="M20 10.6345C20 5.09606 15.5385 0.634521 10 0.634521C4.46154 0.634521 0 5.09606 0 10.6345C0 16.173 4.46154 20.6345 10 20.6345C15.5385 20.6345 20 16.173 20 10.6345Z" fill="url(#paint1_linear_124_126)"/>
</g>
<defs>
<linearGradient id="paint0_linear_124_126" x1="2.95523" y1="3.60191" x2="18.0229" y2="18.6696" gradientUnits="userSpaceOnUse">
<stop stop-color="#FFDB65"/>
<stop offset="1" stop-color="#FF8C33"/>
</linearGradient>
<linearGradient id="paint1_linear_124_126" x1="-2.10292" y1="-0.043445" x2="21.4959" y2="22.7764" gradientUnits="userSpaceOnUse">
<stop stop-color="#FFDF00"/>
<stop offset="1" stop-color="#FFB800"/>
</linearGradient>
</defs>
</svg>
