<svg width="20" height="21" viewBox="0 0 20 21" fill="none" xmlns="http://www.w3.org/2000/svg">
<g opacity="0.3">
<path d="M17.9458 16.7781C21.3302 12.4589 20.4072 6.13447 16.0997 2.74083C11.7923 -0.65281 5.48498 0.118444 2.10056 4.59188C-1.28385 8.91105 -0.514646 15.2356 3.94662 18.6292C5.79267 20.0175 7.94638 20.6345 10.1001 20.6345C13.023 20.6345 15.9459 19.2462 17.9458 16.7781Z" fill="url(#paint0_linear_124_124)"/>
<path d="M17.9458 16.7781C21.3302 12.4589 20.4072 6.13447 16.0997 2.74083C11.7923 -0.65281 5.48498 0.118444 2.10056 4.59188C-1.28385 8.91105 -0.514646 15.2356 3.94662 18.6292C5.79267 20.0175 7.94638 20.6345 10.1001 20.6345C13.023 20.6345 15.9459 19.2462 17.9458 16.7781Z" fill="url(#paint1_linear_124_124)"/>
</g>
<defs>
<linearGradient id="paint0_linear_124_124" x1="2.98698" y1="3.5266" x2="18.1002" y2="18.5986" gradientUnits="userSpaceOnUse">
<stop stop-color="#FFDB65"/>
<stop offset="1" stop-color="#FF8C33"/>
</linearGradient>
<linearGradient id="paint1_linear_124_124" x1="-2.10292" y1="-0.043445" x2="21.4959" y2="22.7764" gradientUnits="userSpaceOnUse">
<stop stop-color="#FFDF00"/>
<stop offset="1" stop-color="#FFB800"/>
</linearGradient>
</defs>
</svg>
