<svg width="20" height="21" viewBox="0 0 20 21" fill="none" xmlns="http://www.w3.org/2000/svg">
<g opacity="0.3">
<path d="M5.51239 19.5563C0.591562 17.0919 -1.40747 11.0849 1.05295 6.15599C3.51336 1.22712 9.51064 -0.775264 14.4315 1.68917C19.3523 4.1536 21.3514 10.1607 19.0447 15.0895C17.3532 18.6322 13.8163 20.6345 10.1257 20.6345C8.43413 20.6345 6.89637 20.1724 5.51239 19.5563Z" fill="url(#paint0_linear_124_110)"/>
<path d="M5.51239 19.5563C0.591562 17.0919 -1.40747 11.0849 1.05295 6.15599C3.51336 1.22712 9.51064 -0.775264 14.4315 1.68917C19.3523 4.1536 21.3514 10.1607 19.0447 15.0895C17.3532 18.6322 13.8163 20.6345 10.1257 20.6345C8.43413 20.6345 6.89637 20.1724 5.51239 19.5563Z" fill="url(#paint1_linear_124_110)"/>
</g>
<defs>
<linearGradient id="paint0_linear_124_110" x1="2.84212" y1="3.47004" x2="17.9318" y2="18.5353" gradientUnits="userSpaceOnUse">
<stop stop-color="#E991FC"/>
<stop offset="1" stop-color="#7533D8"/>
</linearGradient>
<linearGradient id="paint1_linear_124_110" x1="-2.10292" y1="-0.043445" x2="21.4959" y2="22.7764" gradientUnits="userSpaceOnUse">
<stop stop-color="#FFDF00"/>
<stop offset="1" stop-color="#FFB800"/>
</linearGradient>
</defs>
</svg>
