<svg width="20" height="21" viewBox="0 0 20 21" fill="none" xmlns="http://www.w3.org/2000/svg">
<g opacity="0.3">
<path d="M3.90934 18.6245C-0.408111 15.223 -1.3333 8.88376 2.05898 4.55453C5.45127 0.225297 11.7732 -0.702415 16.0907 2.69912C20.4081 6.10066 21.3333 12.4399 17.941 16.7691C15.9365 19.3976 13.0068 20.6345 9.92287 20.6345C7.76415 20.6345 5.60548 20.016 3.90934 18.6245Z" fill="url(#paint0_linear_124_118)"/>
<path d="M3.90934 18.6245C-0.408111 15.223 -1.3333 8.88376 2.05898 4.55453C5.45127 0.225297 11.7732 -0.702415 16.0907 2.69912C20.4081 6.10066 21.3333 12.4399 17.941 16.7691C15.9365 19.3976 13.0068 20.6345 9.92287 20.6345C7.76415 20.6345 5.60548 20.016 3.90934 18.6245Z" fill="url(#paint1_linear_124_118)"/>
</g>
<defs>
<linearGradient id="paint0_linear_124_118" x1="2.84923" y1="3.48597" x2="17.9989" y2="18.5943" gradientUnits="userSpaceOnUse">
<stop stop-color="#E991FC"/>
<stop offset="1" stop-color="#7533D8"/>
</linearGradient>
<linearGradient id="paint1_linear_124_118" x1="-2.10292" y1="-0.043445" x2="21.4959" y2="22.7764" gradientUnits="userSpaceOnUse">
<stop stop-color="#FFDF00"/>
<stop offset="1" stop-color="#FFB800"/>
</linearGradient>
</defs>
</svg>
